# xmcd
#
# Track frame offsets: 
#        150
#        16297
#        35126
#        53421
#        71389
#        84017
#        106433
#        128201
#        142545
#        152643
#        173059
#        200266
#        217293
#
# Disc length: 3187 seconds
#
# Revision: 0
# Processed by: cddbd v1.5.2PL0 Copyright (c) Steve Scherf et al.
# Submitted via: ExactAudioCopy v1.0b3
#
DISCID=a40c710d
DTITLE=Drop's - HELLO
DYEAR=2014
DGENRE=Blues
TTITLE0=ハロー
TTITLE1=コール・ミー
TTITLE2=マイ・ロックスター
TTITLE3=DRY DRIVE
TTITLE4=アイスクリーム・シアター
TTITLE5=Stage Dog
TTITLE6=どしゃ降り
TTITLE7=ドラキュラ・サマー
TTITLE8=真昼のブランコ
TTITLE9=ためいき
TTITLE10=行方
TTITLE11=星の恋人
TTITLE12=かもめのBaby
EXTD=
EXTT0=
EXTT1=
EXTT2=
EXTT3=
EXTT4=
EXTT5=
EXTT6=
EXTT7=
EXTT8=
EXTT9=
EXTT10=
EXTT11=
EXTT12=
PLAYORDER=
